<svg xmlns="http://www.w3.org/2000/svg" viewBox="0 0 150 150"><defs><style>.a{fill:#ffe7cb;}.b{fill:#ffb661;}.c{fill:#ff8700;}.d{fill:#ffcf97;}.e{fill:#d36700;}</style></defs><circle class="a" cx="75" cy="75" r="75"/><circle class="b" cx="52.902" cy="110.656" r="7.307"/><circle class="c" cx="52.902" cy="84.369" r="7.307"/><path class="c" d="M80.925,58.123H60.208a7.307,7.307,0,0,1-14.613,0H40.3a4.958,4.958,0,0,0-4.958,4.958v16.33A4.958,4.958,0,0,0,40.3,84.369H80.925a4.958,4.958,0,0,0,4.958-4.958V63.081A4.958,4.958,0,0,0,80.925,58.123Z"/><path class="b" d="M109.7,84.409H60.209a7.307,7.307,0,0,1-14.614,0H40.3a4.959,4.959,0,0,0-4.958,4.959V105.7a4.958,4.958,0,0,0,4.958,4.958h69.4a4.958,4.958,0,0,0,4.958-4.958V89.368A4.959,4.959,0,0,0,109.7,84.409Z"/><rect class="d" x="70.126" y="90.712" width="37.807" height="13.642" rx="6.821"/><rect class="e" x="35.343" y="32.037" width="76.697" height="26.247" rx="4.958"/><circle class="e" cx="52.902" cy="58.284" r="7.307"/></svg>